# Blender v2.63 (sub 0) OBJ File: 'skybox.blend'
# www.blender.org
mtllib skybox.mtl
o Cube
v 128.000000 -128.000000 -128.000000
v 128.000000 -128.000000 128.000000
v -128.000000 -128.000000 128.000000
v -128.000000 -128.000000 -128.000000
v 128.000000 128.000000 -128.000000
v 128.000000 128.000000 128.000000
v -128.000000 128.000000 128.000000
v -128.000000 128.000000 -128.000000
vt 0.500000 0.335000
vt 0.500000 0.003000
vt 0.251000 0.003000
vt 0.251000 0.335000
vt 0.500000 0.998000
vt 0.251000 0.998000
vt 0.251000 0.666500
vt 0.500000 0.666500
vt 0.997345 0.335000
vt 0.997345 0.666500
vt 0.748810 0.666500
vt 0.748810 0.335000
vt 0.002500 0.666500
vt 0.002500 0.335000
vt 0.500000 0.666500
vt 0.500000 0.335000
vt 0.748810 0.666500
vt 0.748810 0.335000
vt 0.500000 0.335000
vt 0.500000 0.666500
vn 0.000000 -1.000000 0.000000
vn 0.000000 1.000000 0.000000
vn 1.000000 0.000000 0.000000
vn -0.000000 -0.000000 1.000000
vn -1.000000 -0.000000 -0.000000
vn 0.000000 0.000000 -1.000000
g Cube_Cube_Material_skybox2
usemtl Material_skybox2
s off
f 1/1/1 2/2/1 3/3/1
f 1/1/1 3/3/1 4/4/1
f 5/5/2 8/6/2 7/7/2
f 5/5/2 7/7/2 6/8/2
f 1/9/3 5/10/3 6/11/3
f 1/9/3 6/11/3 2/12/3
f 2/4/4 6/7/4 7/13/4
f 2/4/4 7/13/4 3/14/4
f 3/4/5 7/7/5 8/8/5
f 3/4/5 8/8/5 4/1/5
f 5/11/6 1/12/6 4/1/6
f 5/11/6 4/1/6 8/8/6
